<svg width="190" height="56" viewBox="0 0 190 56" fill="none" xmlns="http://www.w3.org/2000/svg">
<rect width="134" height="56" fill="black"/>
<rect x="134" width="56" height="56" fill="#38AE34"/>
<g clip-path="url(#clip0_54645_243)">
<path d="M116.026 23.7161C116.026 23.5361 116.111 23.4221 116.286 23.3921C116.359 23.3801 116.456 23.3681 116.558 23.3621C116.661 23.3561 116.8 23.3501 116.952 23.3501C117.327 23.3501 117.617 23.4281 117.823 23.5781C118.028 23.7281 118.125 23.9442 118.125 24.2262C118.125 24.5503 117.992 24.7843 117.726 24.9283C117.78 25.0123 117.835 25.1083 117.901 25.2224C117.968 25.3364 118.028 25.4564 118.095 25.5764C118.161 25.7024 118.216 25.8164 118.27 25.9304H117.557C117.532 25.8764 117.502 25.8044 117.466 25.7204C117.423 25.6364 117.381 25.5524 117.339 25.4684C117.296 25.3844 117.254 25.3004 117.212 25.2344C117.175 25.1623 117.145 25.1143 117.121 25.0783C117.097 25.0783 117.067 25.0783 117.036 25.0783C117.006 25.0783 116.958 25.0783 116.903 25.0783C116.879 25.0783 116.849 25.0783 116.806 25.0783C116.77 25.0783 116.734 25.0783 116.698 25.0783C116.667 25.0783 116.643 25.0783 116.637 25.0723V25.9304H116.026V23.7161ZM117.49 24.2262C117.49 23.9922 117.308 23.8722 116.94 23.8722C116.885 23.8722 116.831 23.8722 116.77 23.8722C116.71 23.8722 116.667 23.8782 116.637 23.8842V24.5383C116.637 24.5383 116.704 24.5503 116.758 24.5503C116.812 24.5503 116.879 24.5503 116.964 24.5503C117.315 24.5503 117.49 24.4362 117.49 24.2142V24.2262Z" fill="white"/>
<path d="M117.006 27.0948C115.7 27.0948 114.635 26.0386 114.635 24.7425C114.635 23.4463 115.7 22.3901 117.006 22.3901C118.313 22.3901 119.377 23.4463 119.377 24.7425C119.377 26.0386 118.313 27.0948 117.006 27.0948ZM117.006 22.7382C115.893 22.7382 114.986 23.6383 114.986 24.7425C114.986 25.8466 115.893 26.7467 117.006 26.7467C118.119 26.7467 119.026 25.8466 119.026 24.7425C119.026 23.6383 118.119 22.7382 117.006 22.7382Z" fill="white"/>
<path d="M31.6425 27.3702H22.4916V42.8322H14.3508V13.2642H22.4916V22.3902H39.7832V42.8382H31.6425V27.3702Z" fill="white"/>
<path d="M63.498 30.124H41.5856V35.11H63.498V30.124Z" fill="white"/>
<path d="M63.498 37.8521H41.5856V42.8381H63.498V37.8521Z" fill="white"/>
<path d="M63.498 22.3901H41.5856V27.3761H63.498V22.3901Z" fill="white"/>
<path d="M72.8363 27.5441H65.3003V22.3901H88.507V27.5441H80.971V42.8381H72.8302V27.5441H72.8363Z" fill="white"/>
<path d="M97.8513 42.8381H105.992V27.5441H113.528V22.3901H90.3214V27.5441H97.8513V42.8381Z" fill="white"/>
<path d="M32.9921 17.5968H31.0745L30.7297 16.8527H28.54L28.1952 17.5968H26.2777L28.6247 13.2642H30.6511L32.9981 17.5968H32.9921ZM30.2337 15.7965L29.6349 14.5183L29.03 15.7965H30.2277H30.2337Z" fill="white"/>
<path d="M38.8099 17.6984H38.701C38.1687 17.6984 37.6848 17.6384 37.2432 17.5124C36.8016 17.3864 36.4447 17.1703 36.1786 16.8643C35.9124 16.5583 35.7794 16.1322 35.7733 15.5861V13.2578H37.4791V15.4781C37.4791 15.7121 37.5396 15.8922 37.6545 16.0122C37.7695 16.1322 37.9267 16.2162 38.1203 16.2582C38.3139 16.3002 38.5256 16.3242 38.7615 16.3242C38.9974 16.3242 39.2091 16.3002 39.4027 16.2582C39.5963 16.2162 39.7535 16.1322 39.8685 16.0122C39.9834 15.8922 40.0439 15.7121 40.0439 15.4781V13.2578H41.7497V15.5861C41.7497 16.1262 41.6106 16.5523 41.3444 16.8583C40.8605 17.4164 40.0197 17.6984 38.822 17.6984H38.8099Z" fill="white"/>
<path d="M49.0918 17.5963H47.386V14.6379H45.3596V13.2637H51.1182V14.6379H49.0918V17.5963Z" fill="white"/>
<path d="M57.3292 17.6985H57.2687C56.7243 17.6985 56.2344 17.6385 55.7867 17.5125C54.8129 17.2365 54.3229 16.5944 54.3108 15.5862V15.2682C54.3108 14.7281 54.4499 14.3021 54.7161 13.99C55.1939 13.4319 56.0348 13.1499 57.2385 13.1499H57.2929C58.1942 13.1499 58.902 13.2999 59.404 13.594C59.9847 13.936 60.2751 14.4941 60.2751 15.2682V15.5862C60.2751 16.1263 60.1359 16.5524 59.8698 16.8584C59.3859 17.4225 58.539 17.6985 57.3171 17.6985H57.3292ZM57.299 16.3243C57.5349 16.3243 57.7466 16.3003 57.9402 16.2583C58.1337 16.2163 58.291 16.1323 58.4059 16.0123C58.5209 15.8923 58.5814 15.7123 58.5814 15.4782V15.3702C58.5814 15.1362 58.5209 14.9622 58.4059 14.8421C58.291 14.7221 58.1337 14.6381 57.9402 14.5961C57.7466 14.5541 57.5288 14.5301 57.299 14.5301C57.0691 14.5301 56.8453 14.5541 56.6517 14.5961C56.4582 14.6381 56.3009 14.7221 56.186 14.8421C56.071 14.9622 56.0106 15.1422 56.0106 15.3702V15.4782C56.0106 15.7123 56.071 15.8923 56.186 16.0123C56.3009 16.1323 56.4582 16.2163 56.6517 16.2583C56.8453 16.3003 57.0631 16.3243 57.299 16.3243Z" fill="white"/>
<path d="M71.5177 17.5898H69.8122V15.2798L68.1066 17.5898H67.2538L65.5482 15.2798V17.5898H63.8427V13.2578H65.9776L67.6832 15.4238L69.3888 13.2578H71.5177V17.5958V17.5898Z" fill="white"/>
<path d="M78.2014 17.6985H78.1409C77.5965 17.6985 77.1066 17.6385 76.6589 17.5125C75.685 17.2365 75.1951 16.5944 75.183 15.5862V15.2682C75.183 14.7281 75.3221 14.3021 75.5883 13.99C76.0661 13.4319 76.9069 13.1499 78.1107 13.1499H78.1651C79.0664 13.1499 79.7741 13.2999 80.2762 13.594C80.8569 13.936 81.1473 14.4941 81.1473 15.2682V15.5862C81.1473 16.1263 81.0081 16.5524 80.742 16.8584C80.2581 17.4225 79.4112 17.6985 78.1893 17.6985H78.2014ZM78.1712 16.3243C78.4071 16.3243 78.6188 16.3003 78.8124 16.2583C79.0059 16.2163 79.1632 16.1323 79.2781 16.0123C79.3931 15.8923 79.4535 15.7123 79.4535 15.4782V15.3702C79.4535 15.1362 79.3931 14.9622 79.2781 14.8421C79.1632 14.7221 79.0059 14.6381 78.8124 14.5961C78.6188 14.5541 78.401 14.5301 78.1712 14.5301C77.9413 14.5301 77.7175 14.5541 77.5239 14.5961C77.3304 14.6381 77.1731 14.7221 77.0582 14.8421C76.9432 14.9622 76.8827 15.1422 76.8827 15.3702V15.4782C76.8827 15.7123 76.9432 15.8923 77.0582 16.0123C77.1731 16.1323 77.3304 16.2163 77.5239 16.2583C77.7175 16.3003 77.9353 16.3243 78.1712 16.3243Z" fill="white"/>
<path d="M88.078 17.5963H86.3722V14.6379H84.3458V13.2637H90.1044V14.6379H88.078V17.5963Z" fill="white"/>
<path d="M95.4383 17.5904H93.7325V13.2578H95.4383V17.5964V17.5904Z" fill="white"/>
<path d="M102.896 17.5963H100.87L98.6316 13.2637H100.549L101.88 16.2761L103.211 13.2637H105.128L102.89 17.5963H102.896Z" fill="white"/>
<path d="M113.438 17.5963H108.321V13.2637H113.438V14.3738H110.026V14.9319H113.438V15.934H110.026V16.4921H113.438V17.6023V17.5963Z" fill="white"/>
</g>
<path d="M179 12V35.7455L162 44L145 35.7455V12H179Z" fill="#050506"/>
<path d="M176.087 14.6724V23.2232V23.835V33.858L172.209 35.7412V23.835V23.2232V14.6724H176.087Z" fill="white"/>
<path d="M168.619 37.4847L164.741 39.3679V31.6201H159.256V39.3679L155.383 37.4847V27.9971H168.619V37.4847Z" fill="white"/>
<path d="M159.256 14.6724V20.6326H164.741V14.6724H168.619V24.2556H155.383V14.6724H159.256Z" fill="white"/>
<path d="M151.786 14.6724V23.2232V23.835V35.7412L147.913 33.858V23.835V23.2232V14.6724H151.786Z" fill="white"/>
<defs>
<clipPath id="clip0_54645_243">
<rect width="105.842" height="30" fill="white" transform="translate(14 13)"/>
</clipPath>
</defs>
</svg>
